<?xml version="1.0" encoding="utf-8"?>
<!-- Generator: Adobe Illustrator 24.0.0, SVG Export Plug-In . SVG Version: 6.00 Build 0)  -->
<svg version="1.1" id="Layer_1" xmlns="http://www.w3.org/2000/svg" xmlns:xlink="http://www.w3.org/1999/xlink" x="0px" y="0px"
	 viewBox="0 0 951.3 234.2" style="enable-background:new 0 0 951.3 234.2;" xml:space="preserve">
<style type="text/css">
	.st0{fill:#68217A;}
	.st1{fill:#FFFFFF;}
	.st2{fill:#993399;}
</style>
<title>Combinationmark White</title>
<g id="Layer_2_1_">
	<g id="Layer_1-2">
		<path class="st0" d="M245.7,234.2c-1.4,0-2.8-0.5-3.7-1.6c-1-1-1.6-2.3-1.5-3.7c0-1.4,0.5-2.8,1.5-3.8c1-1,2.3-1.6,3.7-1.6
			c1.4,0,2.8,0.5,3.8,1.6c1,1,1.6,2.4,1.6,3.8C251.1,231.8,248.6,234.2,245.7,234.2L245.7,234.2z"/>
		<path class="st0" d="M320.3,233.3h-9.7l-35.2-54.7c-0.9-1.4-1.6-2.8-2.2-4.3H273c0.3,3.1,0.5,6.3,0.4,9.4v49.6h-8v-68h10.4
			l34.1,53.4c1.4,2.2,2.4,3.7,2.8,4.6h0.2c-0.4-3.3-0.5-6.7-0.5-10v-48h8L320.3,233.3z"/>
		<path class="st0" d="M374.3,233.3h-36v-68h35v7h-27v23h25v7h-25v24h28V233.3z"/>
		<path class="st0" d="M427.3,172.3h-19v61h-8v-61h-20v-7h47V172.3z"/>
		<path class="st1" d="M311.4,9.3h-46.1v51.7l31,27.5V38.3h16.4c10.5,0,15.6,5.2,15.6,13.3v39.1c0,8.1-4.9,13.6-15.6,13.6h-47.4v30
			h46.1c24.7,0.1,47.9-12.3,47.9-41.1V51.1C359.3,22,336.1,9.3,311.4,9.3z M554.3,92.8V50.3c0-15.3,27.3-18.9,35.5-3.5l25.2-10.3
			c-9.8-21.9-28-28.4-43-28.4c-24.5,0-48.8,14.3-48.8,42.2v42.4c0,28,24.3,42.2,48.2,42.2c15.4,0,33.9-7.7,44.1-27.7l-27-12.5
			C582,111.8,554.3,107.7,554.3,92.8L554.3,92.8z M469.8,55.9c-9.6-2.1-16-5.6-16.5-11.6c0.6-14.5,22.7-14.9,35.7-1.1l20.5-15.9
			c-12.8-15.8-27.3-19.9-42.4-19.9c-22.7,0-44.8,12.8-44.8,37.4c0,23.8,18.1,36.5,38.1,39.6c10.2,1.4,21.5,5.4,21.2,12.6
			c-0.8,13.4-28.2,12.7-40.6-2.5l-19.7,18.7c11.6,14.9,27.3,22.6,42.1,22.6c22.7,0,48-13.3,49-37.4C513.9,67.7,491.9,60,469.8,55.9
			L469.8,55.9z M376.3,134.3h31V9.3h-31V134.3z M903.6,9.3h-47.2v51.7l31,27.5V38.3H904c10.3,0,15.4,5.2,15.4,13.3v39.1
			c0,8.1-4.8,13.6-15.4,13.6h-46.7v30h46.1c24.7,0.1,47.9-12.3,47.9-41.1V51.1C951.5,22,928.3,9.3,903.6,9.3z M675.7,7.2
			c-25.8,0-51.4,14.1-51.4,43V93c0,28.7,25.8,43,51.6,43s51.4-14.3,51.4-43V50.1C727.3,21.5,701.5,7.2,675.7,7.2z M696.3,92.9
			c0,8.9-10,13.5-19.9,13.5s-20.1-4.5-20.1-13.5V50.2c0-9.2,9.8-14.1,19.5-14.1c10.2,0,20.5,4.5,20.5,14.1V92.9z M839.5,50.4
			C838.8,21,818.9,9.3,793.3,9.3h-50v125h32v-40h5.7l29,40h39l-33.8-42.9C830.3,86.6,839.5,73.6,839.5,50.4z M793.5,67.3h-18.1v-28
			h18.1C813,39.3,813,67.3,793.5,67.3L793.5,67.3z"/>
		<path class="st0" d="M42.3,0.1l143.9,13.6c12.2,1.2,21.1,12,19.9,24.2l-13.7,145.2c-1.1,12.2-11.9,21.1-24.1,20L46.5,191.6
			l7.6-19.3l-15,11.5L25,194.6L0,212.8L18.2,20.1C19.3,8,30.1-1,42.3,0.1C42.3,0.1,42.3,0.1,42.3,0.1z"/>
		<path class="st2" d="M41.4,31.9l0.3-3c0.3-2.7,2.7-4.7,5.4-4.4l96.7,10.2c2.7,0.3,4.7,2.7,4.4,5.4l-0.3,3
			c-0.3,2.7-2.7,4.7-5.4,4.4L45.8,37.3C43.1,37,41.1,34.6,41.4,31.9z"/>
		<path class="st2" d="M75.1,65.6l0.3-3c0.3-2.7,2.7-4.7,5.4-4.4l96.7,10.2c2.7,0.3,4.7,2.7,4.4,5.4l-0.3,3
			c-0.3,2.7-2.7,4.7-5.4,4.4L79.4,71C76.8,70.7,74.8,68.3,75.1,65.6z"/>
		<path class="st2" d="M31.3,127l0.3-3c0.3-2.7,2.7-4.7,5.4-4.4l96.7,10.2c2.7,0.3,4.7,2.7,4.4,5.4l-0.3,3c-0.3,2.7-2.7,4.7-5.4,4.4
			l-96.7-10.2C33,132.1,31,129.7,31.3,127z"/>
		<path class="st2" d="M71.8,96.3l0.3-3c0.3-2.7,2.7-4.7,5.4-4.4l96.7,10.2c2.7,0.3,4.7,2.7,4.4,5.4l-0.3,3
			c-0.3,2.7-2.7,4.7-5.4,4.4l-96.7-10.2C73.5,101.4,71.5,99,71.8,96.3z"/>
	</g>
</g>
<g>
	<path class="st0" d="M445.8,234.2v-71.9h23.1v52.8h31.4v19.1H445.8z"/>
	<path class="st0" d="M502.6,234.2l25.3-71.9h23.4l25.3,71.9h-22.9l-2.7-9.5h-22.9l-2.8,9.5H502.6z M532.3,209.6h14.5l-7.2-24.9
		L532.3,209.6z"/>
	<path class="st0" d="M583.2,234.2v-71.9h29.5c6.3,0,11,0.2,13.9,0.5c2.9,0.3,5.4,0.9,7.5,1.6c3.6,1.4,6.4,3.5,8.4,6.4
		c1.9,2.9,2.9,6.4,2.9,10.5c0,3.3-0.7,6.1-2.2,8.5c-1.4,2.4-3.6,4.4-6.5,6c3.8,1.4,6.6,3.4,8.4,6.2c1.8,2.7,2.7,6.3,2.7,10.6
		c0,4.3-0.9,8-2.7,11.1c-1.8,3.1-4.4,5.6-7.7,7.3c-2.3,1.2-4.9,2-7.8,2.5s-7.8,0.7-14.6,0.7H583.2z M605.6,191h9.5
		c3.2,0,5.4-0.5,6.7-1.4c1.3-0.9,2-2.5,2-4.8c0-2.4-0.7-4-2.1-4.9c-1.4-0.9-4.6-1.3-9.7-1.3h-6.4V191z M605.6,217.4h10.7
		c3.5,0,6.1-0.5,7.6-1.6c1.5-1,2.2-2.8,2.2-5.1c0-2.4-0.8-4.1-2.3-5.1c-1.5-1-4.1-1.5-7.7-1.5h-10.5V217.4z"/>
	<path class="st0" d="M655.6,211.8h22.5c0.6,2.6,1.7,4.5,3.4,5.6c1.6,1.1,4.1,1.7,7.3,1.7c2.7,0,4.8-0.5,6.4-1.4
		c1.5-0.9,2.3-2.2,2.3-3.8c0-2.6-3.2-4.7-9.7-6.3c-1.3-0.3-2.3-0.6-3-0.7c-5.3-1.4-9.5-2.6-12.7-3.7c-3.1-1.1-5.4-2.2-6.9-3.1
		c-2.8-2-4.8-4.4-6.2-7.1c-1.4-2.8-2.1-5.9-2.1-9.5c0-7.1,2.7-12.7,8.1-16.8c5.4-4.1,12.8-6.1,22.2-6.1c9.2,0,16.5,1.9,21.8,5.8
		c5.3,3.9,8.3,9.5,9,16.7H696c-0.4-2.1-1.3-3.7-2.8-4.7c-1.5-1-3.7-1.6-6.5-1.6c-2.5,0-4.3,0.4-5.5,1.2c-1.2,0.8-1.8,2.1-1.8,3.7
		c0,2.4,3.2,4.4,9.5,6c0.6,0.2,1,0.3,1.3,0.3c0.9,0.2,2.3,0.6,4.2,1c8.4,2.1,13.8,4,16.4,5.8c3.2,2.1,5.5,4.5,7,7.2
		c1.5,2.7,2.2,5.9,2.2,9.6c0,7.9-2.8,14-8.3,18.3c-5.6,4.3-13.5,6.4-23.9,6.4c-9.5,0-17.1-2.1-22.7-6.4
		C659.4,225.5,656.3,219.5,655.6,211.8z"/>
</g>
</svg>
