<?xml version="1.0" encoding="utf-8"?>
<svg viewBox="0 0 951.34 234.2" xmlns="http://www.w3.org/2000/svg">
  <defs>
    <style>.cls-1{fill:#68217a;}.cls-2{fill:#fff;}.cls-3{fill:#939;}</style>
  </defs>
  <title>Combinationmark White</title>
  <g id="Layer_2" data-name="Layer 2">
    <g id="Layer_1-2" data-name="Layer 1">
      <path class="cls-1" d="M245.7,234.2a4.94,4.94,0,0,1-3.73-1.57,5.07,5.07,0,0,1-1.54-3.74,5.24,5.24,0,0,1,1.54-3.8,5,5,0,0,1,3.73-1.57,5.15,5.15,0,0,1,3.81,1.57,5.31,5.31,0,0,1,1.57,3.8,5.36,5.36,0,0,1-5.38,5.31Z"/>
      <path class="cls-1" d="M320.34,233.26h-9.68l-35.21-54.67a23.56,23.56,0,0,1-2.21-4.33H273a72.21,72.21,0,0,1,.38,9.45v49.55h-8v-68h10.37l34.15,53.45c1.44,2.23,2.35,3.74,2.76,4.55h.19a71.32,71.32,0,0,1-.47-10v-48h8Z"/>
      <path class="cls-1" d="M374.34,233.26h-36v-68h35v7h-27v23h25v7h-25v24h28Z"/>
      <path class="cls-1" d="M427.34,172.26h-19v61h-8v-61h-20v-7h47Z"/>
      <path class="cls-2" d="M311.44,9.26h-46.1V60.94l31,27.49V38.26h16.39c10.45,0,15.61,5.19,15.61,13.31v39.1c0,8.13-4.88,13.59-15.61,13.59H265.34v30h46.1c24.71.14,47.9-12.3,47.9-41.11V51.07C359.34,22,336.15,9.26,311.44,9.26Zm242.9,83.51V50.34c0-15.3,27.28-18.88,35.54-3.45L615.1,36.56c-9.78-21.91-28-28.38-43-28.38-24.52,0-48.77,14.32-48.77,42.16V92.77c0,28,24.25,42.16,48.22,42.16,15.43,0,33.89-7.71,44.09-27.69l-27-12.54c-6.61,17.08-34.3,13-34.3-1.93ZM469.79,55.94c-9.62-2.1-16-5.58-16.46-11.58.56-14.5,22.73-14.92,35.7-1.11l20.5-15.9C496.7,11.59,482.2,7.41,467.14,7.41c-22.73,0-44.76,12.83-44.76,37.37,0,23.85,18.12,36.53,38.06,39.6,10.18,1.4,21.48,5.44,21.2,12.55-.84,13.39-28.17,12.69-40.58-2.51L421.4,113.11C433,128,448.73,135.7,463.51,135.7c22.73,0,48-13.25,49-37.37,1.39-30.68-20.64-38.35-42.67-42.39Zm-93.45,78.32h31V9.26h-31Zm527.23-125H856.34V60.94l31,27.49V38.26H904c10.28,0,15.36,5.19,15.36,13.31v39.1c0,8.13-4.8,13.59-15.36,13.59H857.34v30h46.1c24.71.14,47.9-12.3,47.9-41.11V51.07C951.48,22,928.29,9.26,903.57,9.26ZM675.7,7.18c-25.75,0-51.36,14.13-51.36,43V93c0,28.68,25.75,43,51.64,43s51.36-14.28,51.36-43V50.14C727.34,21.45,701.45,7.18,675.7,7.18Zm20.64,85.7c0,8.92-10,13.52-19.93,13.52s-20.07-4.46-20.07-13.52V50.23c0-9.2,9.75-14.08,19.51-14.08,10.17,0,20.49,4.46,20.49,14.08V92.88ZM839.49,50.37C838.79,21,818.94,9.26,793.35,9.26h-50v125h32v-40H781l29,40h39L815.16,91.34C830.27,86.58,839.49,73.58,839.49,50.37Zm-46,16.89H775.34v-28h18.12c19.49,0,19.49,28,0,28Z" style="stroke: rgba(0, 0, 0, 0.37);"/>
      <path class="cls-1" d="M42.28.1,186.2,13.67a22.18,22.18,0,0,1,19.93,24.21l-13.7,145.2a22.16,22.16,0,0,1-24.1,20L46.53,191.64l7.57-19.33-15,11.49L25,194.6,0,212.83,18.17,20.15A22.17,22.17,0,0,1,42.28.1Z"/>
      <rect class="cls-3" x="88.38" y="-17.52" width="12.85" height="107.11" rx="4.91" transform="translate(49 126.52) rotate(-83.96)"/>
      <rect class="cls-3" x="122.07" y="16.17" width="12.85" height="107.11" rx="4.91" transform="translate(45.64 190.18) rotate(-83.96)"/>
      <rect class="cls-3" x="78.32" y="77.57" width="12.85" height="107.11" rx="4.91" transform="translate(-54.57 201.6) rotate(-83.96)"/>
      <rect class="cls-3" x="118.83" y="46.87" width="12.85" height="107.11" rx="4.91" transform="translate(12.2 214.42) rotate(-83.96)"/>
    </g>
  </g>
</svg>