<svg width="951" height="235" viewBox="0 0 951 235" fill="none" xmlns="http://www.w3.org/2000/svg">
<g clip-path="url(#clip0_808_582)">
<mask id="mask0_808_582" style="mask-type:luminance" maskUnits="userSpaceOnUse" x="0" y="0" width="234" height="234">
<path d="M234 0H0V234H234V0Z" fill="white"/>
</mask>
<g mask="url(#mask0_808_582)">
<path d="M234 0H0V234H234V0Z" fill="#68217A"/>
<path d="M238.331 15.7477L0.770185 0.721272C-5.52752 0.322924 -11.2474 5.07845 -12.0054 11.343L-13.7092 25.4228C-14.4673 31.6874 -9.97656 37.0887 -3.67886 37.4871L233.882 52.5135C240.18 52.9118 245.9 48.1563 246.658 41.8917L248.361 27.812C249.12 21.5474 244.629 16.146 238.331 15.7477Z" fill="#993399"/>
<path d="M237.824 76.1954L49.0373 64.2541C42.7396 63.8558 37.0197 68.6113 36.2617 74.8759L34.5579 88.9556C33.7998 95.2202 38.2905 100.622 44.5882 101.02L233.375 112.961C239.673 113.36 245.392 108.604 246.151 102.339L247.854 88.2597C248.612 81.9951 244.122 76.5937 237.824 76.1954Z" fill="#993399"/>
<path d="M189.8 133.138L0.770187 121.181C-5.52752 120.783 -11.2474 125.539 -12.0054 131.803L-13.7092 145.883C-14.4673 152.148 -9.97656 157.549 -3.67886 157.947L185.351 169.904C191.649 170.302 197.369 165.547 198.127 159.282L199.831 145.202C200.589 138.938 196.098 133.537 189.8 133.138Z" fill="#993399"/>
<path d="M238.331 196.438L0.770185 181.411C-5.52752 181.013 -11.2474 185.769 -12.0054 192.033L-13.7092 206.113C-14.4673 212.377 -9.97656 217.779 -3.67886 218.177L233.882 233.204C240.18 233.602 245.9 228.846 246.658 222.582L248.361 208.502C249.12 202.237 244.629 196.836 238.331 196.438Z" fill="#993399"/>
<path fill-rule="evenodd" clip-rule="evenodd" d="M67.4442 71.6232L64.8674 101.191L80.8388 118.237C89.6234 127.612 96.9304 135.342 97.0781 135.414C97.2261 135.486 97.951 128.622 98.7019 120.041C99.4478 111.514 100.666 98.6854 101.41 91.5342L102.761 78.5317L108.394 79.0307C115.91 79.6966 124.784 80.9923 127.525 81.8241C131.559 83.0476 133.728 84.9223 135.871 89.0384L136.766 90.7568L134.84 115.083C132.808 140.735 132.402 144.011 130.915 146.707C129.728 148.859 127.877 150.581 125.082 152.13L122.579 153.518L91.8688 151.196C74.9788 149.92 61.1024 148.915 61.0325 148.963C60.9625 149.012 60.1669 156.616 59.2638 165.862L57.6226 182.674L64.638 183.279C80.7488 184.669 117.453 187.249 120.743 187.223C126.901 187.174 133.066 185.962 139.626 183.512C144.143 181.825 145.88 180.967 149.602 178.586C157.57 173.487 163.803 165.319 166.772 156.085C167.854 152.718 170.72 125.173 172.009 105.749C173.041 90.1983 173.058 89.5841 172.541 86.5357C170.284 73.2223 162.743 62.3317 151.046 55.4936C145.037 51.9809 138.415 49.5294 130.981 48.0664C128.685 47.6144 117.66 46.4691 98.7558 44.7176L70.0209 42.0552L67.4442 71.6232Z" fill="white"/>
</g>
</g>
<path fill-rule="evenodd" clip-rule="evenodd" d="M454.373 8.36299C436.626 10.4726 422.897 21.3772 419.94 35.7143C416.929 50.3101 423.51 65.4101 436.145 72.8958C442.272 76.5258 445.971 77.8639 454.79 79.64C464.063 81.5079 468.479 83.2064 471.424 86.0379C473.337 87.8789 473.738 88.6792 473.737 90.6542C473.731 96.343 468.871 99.7234 460.74 99.6958C452.859 99.6689 444.8 96.5981 439.226 91.4985C437.795 90.1892 436.328 89.2923 435.966 89.5052C435.605 89.7181 433.266 91.8583 430.77 94.2609C428.273 96.663 424.529 100.236 422.448 102.201C420.368 104.165 418.666 106.035 418.666 106.356C418.666 106.677 420.603 108.96 422.971 111.429C432.886 121.766 444.453 127 457.384 127C466.941 127 474.424 125.18 482.817 120.816C497.248 113.312 504.235 100.413 502.208 85.018C501.11 76.6751 498.942 71.737 494.11 66.5713C488.415 60.4836 480.189 56.6591 466.174 53.5815C461.847 52.6314 457.079 51.3172 455.578 50.6613C449.806 48.1369 447.405 44.6341 448.386 40.1672C450.676 29.7367 467.359 29.361 478.763 39.4837L480.85 41.3358L490.363 33.9198L499.877 26.5038L496.038 22.5318C491.543 17.8818 484.795 13.1983 479.916 11.3414C472.698 8.59303 462.471 7.40058 454.373 8.36299ZM552.092 8.32444C532.942 10.2548 519.324 19.9798 513.845 35.6366L512.169 40.426V67.6524V94.8789L513.872 99.7503C516.835 108.224 521.888 114.746 528.998 119.271C536.998 124.362 543.863 126.392 554.559 126.829C563.692 127.202 569.511 126.073 576.926 122.492C584.996 118.594 592.955 111.143 596.686 103.994C597.916 101.635 597.986 101.19 597.2 100.691C596.701 100.374 591.143 97.7086 584.85 94.7688L573.408 89.4238L572.471 90.9277C571.956 91.7549 570.393 93.5702 568.996 94.9621C565.523 98.4244 561.563 99.6995 555.407 99.3397C549.486 98.9928 545.636 97.1488 543.04 93.4172L541.219 90.7986L541.039 68.684C540.833 43.5494 540.911 43.0146 545.335 39.1864C548.742 36.2386 553.254 34.9739 558.841 35.401C564.478 35.8323 568.363 37.603 571.805 41.3082L574.551 44.2652L585.488 39.8349C591.503 37.398 596.733 35.2113 597.11 34.9758C598.544 34.0795 592.209 24.0381 587.358 19.5173C581.151 13.733 572.31 9.46673 564.822 8.64259C557.722 7.86067 556.9 7.83987 552.092 8.32444ZM646.826 8.36237C626.969 10.3098 611.785 21.51 607.084 37.6776C605.808 42.0687 605.169 83.6567 606.253 91.8852C607.886 104.298 613.717 113.107 624.737 119.811C633.322 125.034 643.975 127.371 656.749 126.832C666.074 126.44 672.692 124.731 680.385 120.729C686.804 117.391 694.145 110.106 696.912 104.33C700.48 96.879 700.67 95.0165 700.68 67.3881C700.689 43.8149 700.614 42.0638 699.412 37.5614C696.094 25.1278 686.206 15.6224 671.64 10.8611C664.402 8.49575 655.059 7.55476 646.826 8.36237ZM274.023 33.899V58.2688L288.397 71.3063L302.77 84.3432L302.929 60.6402L303.087 36.9379L313.217 37.1557C324.811 37.4047 327.544 38.2375 330.307 42.3594L331.82 44.617L331.993 66.5505C332.156 87.1735 332.096 88.6449 330.987 91.1779C330.211 92.9522 328.927 94.4622 327.228 95.599L324.648 97.3262L299.487 97.6321L274.326 97.938L274.163 111.908L274 125.877L300.186 125.617C324.722 125.374 326.697 125.273 331.517 124.012C346.768 120.026 356.64 110.997 360.36 97.6321C361.352 94.0676 361.468 90.9913 361.471 67.9583C361.474 45.5427 361.342 41.7769 360.435 38.4651C357.009 25.9543 348.86 17.2682 336.433 12.8783C328.05 9.91765 323.568 9.52852 297.849 9.52852H274.023V33.899ZM376.907 67.6634V125.798L391.281 125.634L405.654 125.47L405.808 67.4995L405.963 9.52852H391.435H376.907V67.6634ZM715.819 67.6634V125.798L730.495 125.634L745.171 125.47L745.332 107.235L745.492 89.0004L748.151 89.1864L750.811 89.3724L763.773 107.421L776.735 125.47L794.693 125.633C804.57 125.722 812.651 125.641 812.651 125.452C812.651 125.145 806.399 117.081 788.317 94.0664C785.058 89.9182 782.391 86.3206 782.391 86.0722C782.391 85.8238 783.88 84.9966 785.7 84.2343C790.768 82.1106 796.846 76.081 799.602 70.443C802.348 64.8227 804.16 56.4015 804.171 49.1984C804.197 31.3703 796.108 18.4362 781.439 12.8544C773.882 9.97883 768.478 9.53342 741.086 9.53097L715.819 9.52852V67.6634ZM819.914 33.8665V58.2859L833.33 70.4644C840.709 77.1621 847.09 82.9867 847.509 83.4071C847.928 83.828 848.427 84.1719 848.618 84.1719C848.808 84.1719 848.963 73.5719 848.963 60.6164V37.0609L857.587 37.0756C870.358 37.0982 874.355 38.4394 876.812 43.5255C877.941 45.8639 878.012 47.2938 878 67.3869C877.984 91.8607 877.89 92.4059 873.113 95.6033L870.539 97.3262L845.377 97.6321L820.216 97.938L820.053 111.908L819.891 125.877L846.077 125.617C870.613 125.374 872.588 125.273 877.408 124.012C892.794 119.991 903.197 110.315 906.197 97.2363C906.981 93.821 907.099 88.7985 906.937 65.88L906.743 38.5905L905.057 34.3077C900.502 22.7398 891.08 14.8967 877.393 11.2796C872.562 10.0027 870.742 9.90969 846.089 9.68515L819.914 9.44715V33.8665ZM647.415 35.4126C643.204 36.3701 638.849 38.9227 637.031 41.4991C635.634 43.4802 635.63 43.5426 635.458 66.709C635.334 83.4389 635.484 90.418 635.995 91.6662C639.476 100.161 657.979 102.628 667.257 95.8333C671.626 92.6341 671.64 92.5454 671.64 67.6934C671.64 42.8629 671.665 43.0324 667.357 39.3045C663.051 35.5784 654.243 33.8598 647.415 35.4126ZM745.474 50.2153V63.3696L755.006 63.3659C765.808 63.3623 768.199 62.8875 771.306 60.1294C777.015 55.0622 777.253 46.2659 771.824 40.9797C768.419 37.6636 765.768 37.0609 754.587 37.0609H745.474V50.2153Z" fill="black"/>
<path fill-rule="evenodd" clip-rule="evenodd" d="M300.014 153.477C299.91 153.75 299.869 169.908 299.925 189.384L300.026 224.796L305.625 224.904L311.223 225.012L311.115 196.399C311.056 180.663 311.049 167.787 311.1 167.787C311.151 167.787 311.711 168.794 312.346 170.025C312.981 171.255 321.069 184.082 330.318 198.529L347.137 224.796L353.486 224.903L359.835 225.01V189.005V153H354.329H348.824L348.937 181.048C348.999 196.475 348.912 208.864 348.744 208.58C348.575 208.295 340.629 195.717 331.084 180.629L313.73 153.195L306.967 153.088C301.772 153.006 300.161 153.097 300.014 153.477ZM375.522 188.995V224.99H395.524H415.525V219.931V214.873H401.406H387.288V204.171V193.47H399.445H411.603V188.611V183.753L399.544 183.65L387.484 183.547L387.379 173.332L387.275 163.118H400.615H413.956V158.059V153H394.739H375.522V188.995ZM419.447 158.059V163.118H429.644H439.841V194.054V224.99H445.723H451.606V194.054V163.118H461.803H472V158.059V153H445.723H419.447V158.059ZM278.528 213.102C276.574 213.793 275.566 214.716 274.683 216.624C273.77 218.597 273.772 220.098 274.689 222.102C277.648 228.565 288.064 226.511 288.064 219.465C288.064 216.469 286.593 214.356 283.659 213.14C281.899 212.411 280.511 212.4 278.528 213.102Z" fill="white"/>
<defs>
<clipPath id="clip0_808_582">
<rect width="234" height="234" rx="30" fill="white"/>
</clipPath>
</defs>
</svg>
