<?xml version="1.0" encoding="utf-8"?>
<svg version="1.1" id="Layer_1" x="0px" y="0px" viewBox="0 0 951.3 234.2" style="enable-background:new 0 0 951.3 234.2;" xmlns="http://www.w3.org/2000/svg">
  <style type="text/css">
	.st0{fill:#68217A;}
	.st1{fill:#FFFFFF;}
	.st2{fill:#993399;}
</style>
  <title>Combinationmark White</title>
  <g id="Layer_2_1_" style="" transform="matrix(0.991743, 0, 0, 1, 2.095819, 0)">
    <g id="Layer_1-2">
      <path class="st0" d="M245.7,234.2c-1.4,0-2.8-0.5-3.7-1.6c-1-1-1.6-2.3-1.5-3.7c0-1.4,0.5-2.8,1.5-3.8c1-1,2.3-1.6,3.7-1.6 c1.4,0,2.8,0.5,3.8,1.6c1,1,1.6,2.4,1.6,3.8C251.1,231.8,248.6,234.2,245.7,234.2L245.7,234.2z"/>
      <path class="st0" d="M320.3,233.3h-9.7l-35.2-54.7c-0.9-1.4-1.6-2.8-2.2-4.3H273c0.3,3.1,0.5,6.3,0.4,9.4v49.6h-8v-68h10.4 l34.1,53.4c1.4,2.2,2.4,3.7,2.8,4.6h0.2c-0.4-3.3-0.5-6.7-0.5-10v-48h8L320.3,233.3z"/>
      <path class="st0" d="M374.3,233.3h-36v-68h35v7h-27v23h25v7h-25v24h28V233.3z"/>
      <path class="st0" d="M427.3,172.3h-19v61h-8v-61h-20v-7h47V172.3z"/>
      <path class="st1" d="M311.4,9.3h-46.1v51.7l31,27.5V38.3h16.4c10.5,0,15.6,5.2,15.6,13.3v39.1c0,8.1-4.9,13.6-15.6,13.6h-47.4v30 h46.1c24.7,0.1,47.9-12.3,47.9-41.1V51.1C359.3,22,336.1,9.3,311.4,9.3z M554.3,92.8V50.3c0-15.3,27.3-18.9,35.5-3.5l25.2-10.3 c-9.8-21.9-28-28.4-43-28.4c-24.5,0-48.8,14.3-48.8,42.2v42.4c0,28,24.3,42.2,48.2,42.2c15.4,0,33.9-7.7,44.1-27.7l-27-12.5 C582,111.8,554.3,107.7,554.3,92.8L554.3,92.8z M469.8,55.9c-9.6-2.1-16-5.6-16.5-11.6c0.6-14.5,22.7-14.9,35.7-1.1l20.5-15.9 c-12.8-15.8-27.3-19.9-42.4-19.9c-22.7,0-44.8,12.8-44.8,37.4c0,23.8,18.1,36.5,38.1,39.6c10.2,1.4,21.5,5.4,21.2,12.6 c-0.8,13.4-28.2,12.7-40.6-2.5l-19.7,18.7c11.6,14.9,27.3,22.6,42.1,22.6c22.7,0,48-13.3,49-37.4C513.9,67.7,491.9,60,469.8,55.9 L469.8,55.9z M376.3,134.3h31V9.3h-31V134.3z M903.6,9.3h-47.2v51.7l31,27.5V38.3H904c10.3,0,15.4,5.2,15.4,13.3v39.1 c0,8.1-4.8,13.6-15.4,13.6h-46.7v30h46.1c24.7,0.1,47.9-12.3,47.9-41.1V51.1C951.5,22,928.3,9.3,903.6,9.3z M675.7,7.2 c-25.8,0-51.4,14.1-51.4,43V93c0,28.7,25.8,43,51.6,43s51.4-14.3,51.4-43V50.1C727.3,21.5,701.5,7.2,675.7,7.2z M696.3,92.9 c0,8.9-10,13.5-19.9,13.5s-20.1-4.5-20.1-13.5V50.2c0-9.2,9.8-14.1,19.5-14.1c10.2,0,20.5,4.5,20.5,14.1V92.9z M839.5,50.4 C838.8,21,818.9,9.3,793.3,9.3h-50v125h32v-40h5.7l29,40h39l-33.8-42.9C830.3,86.6,839.5,73.6,839.5,50.4z M793.5,67.3h-18.1v-28 h18.1C813,39.3,813,67.3,793.5,67.3L793.5,67.3z" style="fill-rule: evenodd; paint-order: stroke; stroke: rgba(130, 130, 130, 0.55); stroke-width: 3.01244px;"/>
      <path d="M 359.8 51.1 L 359.8 93.2 C 359.768 107.723 353.881 118.239 344.913 124.987 C 335.949 131.732 323.812 134.842 311.399 134.8 L 264.8 134.8 L 264.8 103.8 L 312.7 103.8 C 317.967 103.814 321.682 102.491 324.172 100.172 C 326.651 97.862 327.815 94.665 327.8 90.7 L 327.8 51.6 C 327.817 47.64 326.607 44.522 324.104 42.285 C 321.591 40.039 317.871 38.787 312.7 38.8 L 296.8 38.8 L 296.8 89.612 L 264.8 61.225 L 264.8 8.8 L 311.4 8.8 C 323.814 8.808 335.953 12.02 344.917 18.891 C 353.883 25.764 359.769 36.429 359.8 51.1 Z M 344.308 19.684 C 335.497 12.93 323.686 9.792 311.4 9.8 L 265.8 9.8 L 265.8 60.775 L 295.8 87.388 L 295.8 37.8 L 312.7 37.8 C 318.029 37.813 322.109 39.161 324.771 41.54 C 327.443 43.928 328.783 47.46 328.8 51.6 L 328.8 90.7 C 328.785 94.835 327.499 98.438 324.853 100.903 C 322.218 103.359 318.133 104.786 312.7 104.8 L 265.8 104.8 L 265.8 133.8 L 311.4 133.8 C 323.687 133.858 335.501 130.818 344.312 124.188 C 353.119 117.561 358.832 107.477 358.8 93.2 L 358.8 51.1 C 358.831 36.671 353.117 26.436 344.308 19.684 Z M 616.183 106.965 L 615.945 107.427 C 605.619 127.544 586.896 135.4 571.4 135.4 C 559.379 135.4 547.165 131.801 538.03 124.695 C 528.893 117.587 522.733 106.825 522.7 92.7 L 522.7 50.3 C 522.733 36.225 528.894 25.463 538.107 18.342 C 547.316 11.224 559.68 7.6 572 7.6 C 579.548 7.6 587.978 9.251 595.698 13.653 C 603.406 18.049 610.506 25.272 615.456 36.296 L 615.668 36.767 L 589.569 47.435 L 589.359 47.035 C 587.371 43.261 584.245 40.72 580.597 39.158 C 576.948 37.596 572.898 37.097 569.031 37.534 C 565.168 37.971 561.64 39.32 559.015 41.516 C 556.396 43.707 554.769 46.596 554.8 50.3 L 554.8 92.8 C 554.767 96.402 556.418 99.245 559.047 101.401 C 561.683 103.562 565.207 104.884 569.011 105.252 C 572.818 105.621 576.746 105.019 580.187 103.267 C 583.629 101.515 586.465 98.709 588.033 94.522 L 588.221 94.02 Z M 580.641 104.158 C 577.06 105.981 572.844 106.629 568.914 106.248 C 564.981 105.866 561.173 104.438 558.413 102.174 C 555.645 99.905 553.833 96.648 553.8 92.8 L 553.8 50.3 C 553.831 46.354 555.616 43.056 558.373 40.749 C 561.123 38.449 564.932 36.991 568.919 36.541 C 572.902 36.09 577.214 36.622 580.991 38.239 C 584.767 39.855 587.9 42.452 590.022 46.169 L 614.331 36.233 C 609.493 25.626 602.794 18.851 595.202 14.522 C 587.622 10.199 579.452 8.6 572 8.6 C 559.82 8.6 547.784 12.126 538.718 19.133 C 529.656 26.137 523.667 36.475 523.7 50.3 L 523.7 92.7 C 523.667 106.575 529.657 116.913 538.645 123.905 C 547.635 130.899 559.521 134.4 571.4 134.4 C 586.704 134.4 604.697 126.973 614.818 107.435 L 588.768 95.375 C 587.049 99.476 584.221 102.335 580.641 104.158 Z M 512.9 98.421 C 512.354 110.604 505.679 120.163 496.319 126.551 C 486.965 132.933 474.817 136.3 463.4 136.3 C 448.49 136.3 432.593 128.478 420.905 113.507 L 420.627 113.15 L 441.048 93.765 L 441.387 94.184 C 447.486 101.71 457.255 105.579 465.674 105.976 C 469.868 106.173 473.617 105.505 476.422 103.962 C 479.207 102.43 480.949 100.187 481.101 96.975 C 481.194 95.279 480.592 93.862 479.465 92.511 C 478.328 91.15 476.708 89.991 474.71 88.97 C 470.697 86.921 465.397 85.589 460.323 84.894 C 450.266 83.328 440.598 79.325 433.509 72.729 C 426.42 66.131 421.8 56.811 421.8 44.8 C 421.8 32.373 427.448 22.808 435.887 16.475 C 444.321 10.146 455.681 6.9 467.1 6.9 C 482.268 6.9 496.962 11.102 509.889 26.985 L 510.211 27.381 L 488.947 43.874 L 488.636 43.543 C 482.229 36.705 473.643 33.452 466.513 33.637 C 462.967 33.729 459.901 34.658 457.613 36.463 C 455.331 38.263 453.927 40.79 453.801 44.291 C 454.014 47.149 455.624 49.306 458.413 51.145 C 461.224 52.999 465.132 54.368 469.899 55.41 C 480.968 57.464 492.105 60.446 500.257 66.78 C 508.412 73.118 513.62 82.941 512.9 98.421 Z M 499.643 67.57 C 491.645 61.354 480.74 58.437 469.709 56.392 C 464.88 55.333 460.776 53.901 457.862 51.98 C 454.926 50.044 453.099 47.468 452.802 44.342 L 452.799 44.311 L 452.8 44.279 C 452.981 40.545 454.557 37.6 456.993 35.678 C 459.424 33.76 462.808 32.733 466.487 32.638 C 473.807 32.448 482.488 35.787 489.049 42.529 L 508.789 27.218 C 496.196 11.831 482.132 7.9 467.1 7.9 C 455.819 7.9 444.779 11.054 436.488 17.275 C 428.202 23.492 422.8 32.627 422.8 44.8 C 422.8 56.589 427.23 65.519 434.191 71.996 C 441.152 78.475 450.53 82.371 460.472 83.905 C 465.598 84.611 471.053 85.979 475.165 88.08 C 477.229 89.134 479.015 90.413 480.232 91.87 C 481.458 93.338 482.156 95.116 482.1 97.021 C 481.85 100.507 479.868 103.208 476.903 104.838 C 473.958 106.458 469.932 107.177 465.627 106.974 C 457.045 106.571 447.28 102.636 440.958 95.229 L 421.974 113.25 C 433.457 127.844 448.71 135.3 463.4 135.3 C 474.683 135.3 486.535 132.017 495.756 125.725 C 504.971 119.437 511.446 110.296 511.9 98.379 C 512.68 83.159 507.638 73.782 499.643 67.57 Z M 407.8 8.8 L 407.8 134.8 L 375.8 134.8 L 375.8 8.8 Z M 376.8 133.8 L 406.8 133.8 L 406.8 9.8 L 376.8 9.8 Z M 951.8 51.101 L 951.8 93.2 C 951.768 107.723 945.881 118.239 936.913 124.987 C 927.949 131.732 915.812 134.842 903.399 134.8 L 856.8 134.8 L 856.8 103.8 L 904 103.8 C 909.216 103.815 912.88 102.493 915.331 100.174 C 917.774 97.865 918.914 94.667 918.9 90.7 L 918.9 51.6 C 918.917 47.64 917.706 44.52 915.228 42.284 C 912.739 40.038 909.07 38.787 904 38.8 L 887.9 38.8 L 887.9 89.612 L 855.9 61.225 L 855.9 8.8 L 903.6 8.8 C 916.014 8.808 928.153 12.02 937.092 18.891 C 946.034 25.765 951.868 36.43 951.8 51.101 Z M 936.483 19.684 C 927.697 12.93 915.886 9.792 903.6 9.8 L 856.9 9.8 L 856.9 60.775 L 886.9 87.388 L 886.9 37.8 L 904 37.8 C 909.23 37.813 913.261 39.162 915.897 41.541 C 918.544 43.93 919.883 47.46 919.9 51.6 L 919.9 90.7 C 919.886 94.833 918.626 98.435 916.019 100.901 C 913.42 103.357 909.384 104.785 904 104.8 L 857.8 104.8 L 857.8 133.8 L 903.4 133.8 C 915.687 133.858 927.501 130.818 936.312 124.188 C 945.119 117.561 950.832 107.477 950.8 93.2 L 950.8 51.1 C 950.931 36.672 945.266 26.435 936.483 19.684 Z M 727.8 50.1 L 727.8 93 C 727.765 107.478 721.276 118.444 711.574 125.664 C 701.876 132.88 688.867 136.5 675.9 136.5 C 662.933 136.5 649.875 132.88 640.127 125.664 C 630.376 118.445 623.836 107.479 623.8 93 L 623.8 50.2 C 623.835 35.622 630.325 24.656 640.027 17.461 C 649.725 10.269 662.734 6.7 675.7 6.7 C 688.667 6.7 701.725 10.32 711.472 17.523 C 721.224 24.73 727.764 35.671 727.8 50.1 Z M 710.878 18.327 C 701.275 11.23 688.533 7.7 675.7 7.7 C 662.866 7.7 650.175 11.181 640.623 18.264 C 631.075 25.344 624.765 35.878 624.8 50.2 L 624.8 93 C 624.764 107.221 631.124 117.755 640.723 124.861 C 650.325 131.97 663.067 135.5 675.9 135.5 C 688.733 135.5 701.424 131.97 710.977 124.861 C 720.525 117.756 726.835 107.222 726.8 93 L 726.8 50.1 C 726.836 35.929 720.476 25.42 710.878 18.327 Z M 696.8 92.9 C 696.751 97.499 694.14 101.104 690.321 103.415 C 686.517 105.718 681.406 106.9 676.4 106.9 C 671.395 106.9 666.236 105.745 662.382 103.455 C 658.513 101.157 655.851 97.551 655.8 92.9 L 655.8 50.2 C 655.845 45.457 658.399 41.707 662.14 39.28 C 665.871 36.862 670.889 35.6 675.8 35.6 C 680.954 35.6 686.215 36.755 690.133 39.122 C 694.066 41.497 696.752 45.253 696.8 50.2 Z M 695.8 50.2 C 695.848 45.547 693.384 42.253 689.617 39.978 C 685.835 37.695 680.846 36.6 675.8 36.6 C 671.011 36.6 666.279 37.788 662.685 40.12 C 659.101 42.443 656.755 45.743 656.8 50.2 L 656.8 92.9 C 656.749 97.249 659.187 100.393 662.893 102.595 C 666.614 104.805 671.505 105.9 676.4 105.9 C 681.294 105.9 686.133 104.782 689.804 102.56 C 693.46 100.346 695.849 97.201 695.8 92.9 Z M 816.034 91.651 L 850.03 134.8 L 809.745 134.8 L 780.745 94.8 L 775.8 94.8 L 775.8 134.8 L 742.8 134.8 L 742.8 8.8 L 793.3 8.8 C 806.162 8.808 817.707 11.77 826.05 18.434 C 834.394 25.1 839.624 35.594 840 50.4 C 839.992 62.062 837.665 71.25 833.437 78.064 C 829.201 84.893 823.346 89.165 816.034 91.651 Z M 814.36 91.141 L 815.049 90.923 C 822.527 88.56 828.449 84.207 832.588 77.536 C 836.735 70.851 839.007 61.941 839 50.406 C 838.675 35.815 833.606 25.75 825.425 19.216 C 817.243 12.68 806.038 9.792 793.3 9.8 L 743.8 9.8 L 743.8 133.8 L 774.8 133.8 L 774.8 93.8 L 781.255 93.8 L 810.255 133.8 L 847.97 133.8 Z M 793.5 67.8 L 774.9 67.8 L 774.9 38.8 L 793.5 38.8 C 798.483 38.825 802.335 40.643 804.835 43.335 C 807.341 46.033 808.625 49.718 808.625 53.3 C 808.625 56.882 807.341 60.567 804.835 63.265 C 802.335 65.958 798.483 67.776 793.5 67.8 Z M 804.102 62.585 C 806.472 60.033 807.625 56.718 807.625 53.3 C 807.625 49.882 806.472 46.567 804.102 44.015 C 801.727 41.457 798.267 39.776 793.5 39.8 L 775.9 39.8 L 775.9 66.8 L 793.5 66.8 C 798.267 66.825 801.727 65.143 804.102 62.585 Z" style="fill: none;"/>
      <path class="st0" d="M42.3,0.1l143.9,13.6c12.2,1.2,21.1,12,19.9,24.2l-13.7,145.2c-1.1,12.2-11.9,21.1-24.1,20L46.5,191.6 l7.6-19.3l-15,11.5L25,194.6L0,212.8L18.2,20.1C19.3,8,30.1-1,42.3,0.1C42.3,0.1,42.3,0.1,42.3,0.1z"/>
      <path class="st2" d="M41.4,31.9l0.3-3c0.3-2.7,2.7-4.7,5.4-4.4l96.7,10.2c2.7,0.3,4.7,2.7,4.4,5.4l-0.3,3 c-0.3,2.7-2.7,4.7-5.4,4.4L45.8,37.3C43.1,37,41.1,34.6,41.4,31.9z"/>
      <path class="st2" d="M75.1,65.6l0.3-3c0.3-2.7,2.7-4.7,5.4-4.4l96.7,10.2c2.7,0.3,4.7,2.7,4.4,5.4l-0.3,3 c-0.3,2.7-2.7,4.7-5.4,4.4L79.4,71C76.8,70.7,74.8,68.3,75.1,65.6z"/>
      <path class="st2" d="M31.3,127l0.3-3c0.3-2.7,2.7-4.7,5.4-4.4l96.7,10.2c2.7,0.3,4.7,2.7,4.4,5.4l-0.3,3c-0.3,2.7-2.7,4.7-5.4,4.4 l-96.7-10.2C33,132.1,31,129.7,31.3,127z"/>
      <path class="st2" d="M71.8,96.3l0.3-3c0.3-2.7,2.7-4.7,5.4-4.4l96.7,10.2c2.7,0.3,4.7,2.7,4.4,5.4l-0.3,3 c-0.3,2.7-2.7,4.7-5.4,4.4l-96.7-10.2C73.5,101.4,71.5,99,71.8,96.3z"/>
    </g>
  </g>
  <g transform="matrix(1, 0, 0, 1, 0, -1.047879)">
    <path class="st0" d="M445.8,234.2v-71.9h23.1v52.8h31.4v19.1H445.8z"/>
    <path class="st0" d="M502.6,234.2l25.3-71.9h23.4l25.3,71.9h-22.9l-2.7-9.5h-22.9l-2.8,9.5H502.6z M532.3,209.6h14.5l-7.2-24.9 L532.3,209.6z"/>
    <path class="st0" d="M583.2,234.2v-71.9h29.5c6.3,0,11,0.2,13.9,0.5c2.9,0.3,5.4,0.9,7.5,1.6c3.6,1.4,6.4,3.5,8.4,6.4 c1.9,2.9,2.9,6.4,2.9,10.5c0,3.3-0.7,6.1-2.2,8.5c-1.4,2.4-3.6,4.4-6.5,6c3.8,1.4,6.6,3.4,8.4,6.2c1.8,2.7,2.7,6.3,2.7,10.6 c0,4.3-0.9,8-2.7,11.1c-1.8,3.1-4.4,5.6-7.7,7.3c-2.3,1.2-4.9,2-7.8,2.5s-7.8,0.7-14.6,0.7H583.2z M605.6,191h9.5 c3.2,0,5.4-0.5,6.7-1.4c1.3-0.9,2-2.5,2-4.8c0-2.4-0.7-4-2.1-4.9c-1.4-0.9-4.6-1.3-9.7-1.3h-6.4V191z M605.6,217.4h10.7 c3.5,0,6.1-0.5,7.6-1.6c1.5-1,2.2-2.8,2.2-5.1c0-2.4-0.8-4.1-2.3-5.1c-1.5-1-4.1-1.5-7.7-1.5h-10.5V217.4z"/>
    <path class="st0" d="M 655.6 211.8 L 678.1 211.8 C 678.7 214.4 679.8 216.3 681.5 217.4 C 683.1 218.5 685.6 219.1 688.8 219.1 C 691.5 219.1 693.6 218.6 695.2 217.7 C 696.7 216.8 697.5 215.5 697.5 213.9 C 697.5 211.3 694.3 209.2 687.8 207.6 C 686.5 207.3 685.5 207 684.8 206.9 C 679.5 205.5 675.3 204.3 672.1 203.2 C 669 202.1 666.7 201 665.2 200.1 C 662.4 198.1 660.4 195.7 659 193 C 657.6 190.2 656.9 187.1 656.9 183.5 C 656.9 176.4 659.6 170.8 665 166.7 C 670.4 162.6 677.8 160.6 687.2 160.6 C 696.4 160.6 703.7 162.5 709 166.4 C 714.3 170.3 717.3 175.9 718 183.1 L 696 183.1 C 695.6 181 694.7 179.4 693.2 178.4 C 691.7 177.4 689.5 176.8 686.7 176.8 C 684.2 176.8 682.4 177.2 681.2 178 C 680 178.8 679.4 180.1 679.4 181.7 C 679.4 184.1 682.6 186.1 688.9 187.7 C 689.5 187.9 689.9 188 690.2 188 C 691.1 188.2 692.5 188.6 694.4 189 C 702.8 191.1 708.2 193 710.8 194.8 C 714 196.9 716.3 199.3 717.8 202 C 719.3 204.7 720 207.9 720 211.6 C 720 219.5 717.2 225.6 711.7 229.9 C 706.1 234.2 698.2 234.728 687.8 234.728 C 678.3 234.728 670.7 234.2 665.1 229.9 C 659.4 225.5 656.3 219.5 655.6 211.8 Z"/>
  </g>
</svg>