<svg width="266" height="275" viewBox="0 0 266 275" fill="none" xmlns="http://www.w3.org/2000/svg">
<g clip-path="url(#clip0_808_659)">
<rect width="265.74" height="274.24" fill="white"/>
<mask id="mask0_808_659" style="mask-type:luminance" maskUnits="userSpaceOnUse" x="-4" y="0" width="274" height="274">
<path d="M270 0H-4V274H270V0Z" fill="white"/>
</mask>
<g mask="url(#mask0_808_659)">
<path d="M270 0H-4V274H270V0Z" fill="#68217A"/>
<path d="M275.071 18.4396L-3.09846 0.844566C-10.4727 0.378125 -17.1703 5.94656 -18.0579 13.282L-20.053 29.7686C-20.9407 37.104 -15.6823 43.4287 -8.30802 43.8951L269.862 61.4902C277.236 61.9566 283.933 56.3882 284.821 49.0527L286.816 32.5662C287.704 25.2307 282.445 18.906 275.071 18.4396Z" fill="#993399"/>
<path d="M274.478 89.2202L53.4196 75.2377C46.0454 74.7713 39.3478 80.3397 38.4601 87.6751L36.4651 104.162C35.5774 111.497 40.8358 117.822 48.21 118.288L269.268 132.271C276.642 132.737 283.34 127.169 284.227 119.833L286.222 103.347C287.11 96.0114 281.852 89.6867 274.478 89.2202Z" fill="#993399"/>
<path d="M218.245 155.897L-3.09846 141.896C-10.4727 141.43 -17.1703 146.998 -18.0579 154.334L-20.053 170.82C-20.9407 178.156 -15.6823 184.48 -8.30802 184.947L213.035 198.947C220.409 199.414 227.107 193.845 227.995 186.51L229.99 170.023C230.877 162.688 225.619 156.363 218.245 155.897Z" fill="#993399"/>
<path d="M275.071 230.017L-3.09846 212.422C-10.4727 211.955 -17.1703 217.524 -18.0579 224.859L-20.053 241.346C-20.9407 248.681 -15.6823 255.006 -8.30802 255.472L269.862 273.067C277.236 273.534 283.933 267.965 284.821 260.63L286.816 244.143C287.704 236.808 282.445 230.483 275.071 230.017Z" fill="#993399"/>
<path fill-rule="evenodd" clip-rule="evenodd" d="M74.9732 83.8665L71.956 118.488L90.6575 138.448C100.944 149.426 109.5 158.477 109.673 158.562C109.846 158.647 110.695 150.608 111.574 140.56C112.447 130.576 113.874 115.555 114.745 107.181L116.327 91.9559L122.923 92.5403C131.723 93.32 142.114 94.8372 145.325 95.8112C150.048 97.2438 152.587 99.439 155.097 104.259L156.145 106.271L153.889 134.756C151.511 164.793 151.035 168.628 149.294 171.786C147.904 174.305 145.736 176.321 142.464 178.135L139.532 179.76L103.573 177.042C83.7957 175.547 67.5473 174.37 67.4655 174.427C67.3836 174.484 66.4519 183.388 65.3944 194.215L63.4727 213.9L71.6873 214.608C90.5521 216.236 133.53 219.258 137.383 219.227C144.594 219.169 151.812 217.751 159.494 214.882C164.783 212.907 166.817 211.902 171.175 209.113C180.505 203.143 187.804 193.578 191.28 182.766C192.548 178.824 195.903 146.57 197.412 123.826C198.62 105.617 198.64 104.898 198.035 101.328C195.393 85.739 186.562 72.9867 172.866 64.9797C165.83 60.8665 158.076 57.9959 149.371 56.2829C146.682 55.7536 133.773 54.4125 111.637 52.3616L77.9904 49.2441L74.9732 83.8665Z" fill="white"/>
</g>
</g>
<defs>
<clipPath id="clip0_808_659">
<rect width="265.74" height="274.24" fill="white"/>
</clipPath>
</defs>
</svg>
