<?xml version="1.0" encoding="utf-8"?>
<!-- Generator: Adobe Illustrator 24.0.0, SVG Export Plug-In . SVG Version: 6.00 Build 0)  -->
<svg version="1.1" id="Layer_1" xmlns="http://www.w3.org/2000/svg" xmlns:xlink="http://www.w3.org/1999/xlink" x="0px" y="0px"
	 viewBox="0 0 265.7 274.2" style="enable-background:new 0 0 265.7 274.2;" xml:space="preserve">
<style type="text/css">
	.st0{fill:#993399;}
	.st1{fill:#FFFFFF;}
</style>
<title>Logomark Full Black</title>
<g id="Layer_2_1_">
	<g id="Layer_1-2">
		<path d="M54.5,0.1l185.4,17.5c15.7,1.5,27.2,15.5,25.7,31.2L248,235.9c-1.4,15.7-15.3,27.3-31.1,25.8L60,246.9l9.7-24.9
			l-19.3,14.8l-18.2,13.9L0,274.2L23.4,26C24.8,10.3,38.7-1.3,54.5,0.1C54.4,0.1,54.5,0.1,54.5,0.1z"/>
		<path class="st0" d="M53.3,56l0.4-3.9c0.4-3.5,3.5-6,6.9-5.6l124.7,13.2c3.5,0.4,6,3.5,5.6,6.9l-0.4,3.9c-0.4,3.5-3.5,6-6.9,5.6
			L59,62.9C55.5,62.5,53,59.4,53.3,56z"/>
		<path class="st0" d="M96.8,99.4l0.4-3.9c0.4-3.5,3.5-6,6.9-5.6L228.8,103c3.5,0.4,6,3.5,5.6,6.9l-0.4,3.9c-0.4,3.5-3.5,6-6.9,5.6
			l-124.7-13.2C98.9,106,96.4,102.8,96.8,99.4z"/>
		<path class="st0" d="M40.4,178.5l0.4-3.9c0.4-3.5,3.5-6,6.9-5.6l124.7,13.2c3.5,0.4,6,3.5,5.6,6.9l-0.4,3.9
			c-0.4,3.5-3.5,6-6.9,5.6L46,185.4C42.5,185.1,40,182,40.4,178.5z"/>
		<path class="st0" d="M92.6,138.9L93,135c0.4-3.5,3.5-6,6.9-5.6l124.7,13.2c3.5,0.4,6,3.5,5.6,6.9l-0.4,3.9c-0.4,3.5-3.5,6-6.9,5.6
			L98.2,145.9C94.7,145.5,92.2,142.4,92.6,138.9z"/>
		<path class="st1" d="M140,53.9H89v58.8l34,31.3V86.9h17.9c11.4,0,17.1,5.7,17.1,14.5v42.7c0,8.9-5.4,14.8-17.1,14.8H89v32h51
			c27.3,0.2,53-13.5,53-45.1V99.7C193,67.8,167.4,53.9,140,53.9z"/>
	</g>
</g>
<g>
	<path class="st1" d="M91.4,234v-28.8h8.3v21.1H111v7.6H91.4z"/>
	<path class="st1" d="M111.8,234l9.1-28.8h8.4l9.1,28.8h-8.2l-1-3.8H121l-1,3.8H111.8z M122.5,224.2h5.2l-2.6-10L122.5,224.2z"/>
	<path class="st1" d="M140.7,234v-28.8h10.6c2.3,0,3.9,0.1,5,0.2s1.9,0.3,2.7,0.6c1.3,0.5,2.3,1.4,3,2.6s1,2.6,1,4.2
		c0,1.3-0.3,2.4-0.8,3.4s-1.3,1.8-2.3,2.4c1.4,0.5,2.4,1.4,3,2.5c0.7,1.1,1,2.5,1,4.3c0,1.7-0.3,3.2-1,4.4s-1.6,2.2-2.8,2.9
		c-0.8,0.5-1.8,0.8-2.8,1s-2.8,0.3-5.2,0.3H140.7z M148.7,216.7h3.4c1.1,0,1.9-0.2,2.4-0.6c0.5-0.4,0.7-1,0.7-1.9c0-1-0.3-1.6-0.8-2
		s-1.7-0.5-3.5-0.5h-2.3V216.7z M148.7,227.3h3.8c1.3,0,2.2-0.2,2.7-0.6s0.8-1.1,0.8-2.1s-0.3-1.6-0.8-2s-1.5-0.6-2.8-0.6h-3.8
		V227.3z"/>
	<path class="st1" d="M166.7,225h8.1c0.2,1,0.6,1.8,1.2,2.2s1.5,0.7,2.6,0.7c1,0,1.7-0.2,2.3-0.6s0.8-0.9,0.8-1.5
		c0-1-1.2-1.9-3.5-2.5c-0.5-0.1-0.8-0.2-1.1-0.3c-1.9-0.5-3.4-1-4.5-1.5c-1.1-0.4-1.9-0.9-2.5-1.3c-1-0.8-1.7-1.7-2.2-2.9
		c-0.5-1.1-0.7-2.4-0.7-3.8c0-2.9,1-5.1,2.9-6.7c1.9-1.6,4.6-2.4,8-2.4c3.3,0,5.9,0.8,7.8,2.3c1.9,1.6,3,3.8,3.2,6.7h-7.9
		c-0.1-0.8-0.5-1.5-1-1.9s-1.3-0.6-2.3-0.6c-0.9,0-1.5,0.2-2,0.5c-0.4,0.3-0.6,0.8-0.6,1.5c0,1,1.1,1.7,3.4,2.4
		c0.2,0.1,0.3,0.1,0.5,0.1c0.3,0.1,0.8,0.2,1.5,0.4c3,0.8,5,1.6,5.9,2.3c1.1,0.8,2,1.8,2.5,2.9s0.8,2.4,0.8,3.8c0,3.2-1,5.6-3,7.3
		s-4.8,2.6-8.6,2.6c-3.4,0-6.1-0.9-8.1-2.6S166.9,228.1,166.7,225z"/>
</g>
</svg>
