<svg xmlns="http://www.w3.org/2000/svg" viewBox="0 0 265.74 274.24"><defs><style>.cls-1{fill:#68217a;}.cls-2{fill:#939;}</style></defs><title>Logomark Full Purple</title><g id="Layer_2" data-name="Layer 2"><g id="Layer_1-2" data-name="Layer 1"><path class="cls-1" d="M54.48.13,239.93,17.62A28.57,28.57,0,0,1,265.61,48.8L248,235.91a28.57,28.57,0,0,1-31.06,25.84L60,246.94,69.71,222l-19.27,14.8L32.23,250.75,0,274.24,23.42,26A28.56,28.56,0,0,1,54.48.13Z"/><rect class="cls-2" x="113.88" y="-7.74" width="16.56" height="138.01" rx="6.32" transform="translate(48.38 176.3) rotate(-83.96)"/><rect class="cls-2" x="157.3" y="35.68" width="16.56" height="138.01" rx="6.32" transform="translate(44.06 258.33) rotate(-83.96)"/><rect class="cls-2" x="100.92" y="114.79" width="16.56" height="138.01" rx="6.32" transform="translate(-85.07 273.05) rotate(-83.96)"/><rect class="cls-2" x="153.11" y="75.23" width="16.56" height="138.01" rx="6.32" transform="translate(0.97 289.56) rotate(-83.96)"/><path d="M140,53.9H89v58.81L123,144V86.9h17.9c11.45,0,17.1,5.66,17.1,14.52v42.65c0,8.87-5.35,14.83-17.1,14.83H89v32h51c27.34.16,53-13.48,53-45.05V99.72C193,67.85,167.35,53.9,140,53.9Z"/></g></g></svg>