<svg xmlns="http://www.w3.org/2000/svg" viewBox="0 0 265.74 274.24"><defs><style>.cls-1{fill:#68217a;}.cls-2{fill:#939;}</style></defs><title>Discord.Net Docs</title><g id="Layer_2" data-name="Layer 2"><g id="Layer_1-2" data-name="Layer 1"><path class="cls-1" d="M54.48.13,239.93,17.62A28.57,28.57,0,0,1,265.61,48.8L248,235.91a28.57,28.57,0,0,1-31.06,25.84L60,246.94,69.71,222l-19.27,14.8L32.23,250.75,0,274.24,23.42,26A28.56,28.56,0,0,1,54.48.13Z"/><rect class="cls-2" x="113.88" y="-22.58" width="16.56" height="138.01" rx="6.32" transform="translate(63.14 163.03) rotate(-83.96)"/><rect class="cls-2" x="157.3" y="20.84" width="16.56" height="138.01" rx="6.32" transform="translate(58.81 245.05) rotate(-83.96)"/><rect class="cls-2" x="100.92" y="99.96" width="16.56" height="138.01" rx="6.32" transform="translate(-70.32 259.78) rotate(-83.96)"/><rect class="cls-2" x="153.11" y="60.4" width="16.56" height="138.01" rx="6.32" transform="translate(15.73 276.29) rotate(-83.96)"/></g></g></svg>