<svg width="38" height="38" viewBox="0 0 38 38" fill="none" xmlns="http://www.w3.org/2000/svg">
<g clip-path="url(#clip0_808_718)">
<rect width="38" height="38" fill="transparent"/>
<mask id="mask0_808_718" style="mask-type:luminance" maskUnits="userSpaceOnUse" x="-1" y="0" width="40" height="38">
<path d="M38.6094 0H-0.571777V37.9667H38.6094V0Z" fill="white"/>
</mask>
<g mask="url(#mask0_808_718)">
<path d="M38.6094 0H-0.571777V37.9667H38.6094V0Z" fill="#68217A"/>
<path d="M39.3347 2.55508L-0.442724 0.117027C-1.49722 0.0523948 -2.45495 0.823984 -2.58188 1.84042L-2.86717 4.12487C-2.9941 5.14131 -2.24217 6.01769 -1.18768 6.08232L38.5897 8.52037C39.6442 8.585 40.602 7.81341 40.7289 6.79698L41.0142 4.51252C41.1411 3.49609 40.3892 2.61971 39.3347 2.55508Z" fill="#993399"/>
<path d="M39.2494 12.3628L7.63882 10.4253C6.58433 10.3607 5.62659 11.1323 5.49966 12.1487L5.21437 14.4331C5.08744 15.4496 5.83938 16.326 6.89387 16.3906L38.5045 18.3281C39.559 18.3927 40.5167 17.6211 40.6436 16.6047L40.9289 14.3202C41.0558 13.3038 40.3039 12.4274 39.2494 12.3628Z" fill="#993399"/>
<path d="M31.2087 21.6018L-0.442723 19.6618C-1.49722 19.5972 -2.45495 20.3688 -2.58188 21.3852L-2.86717 23.6697C-2.9941 24.6861 -2.24217 25.5625 -1.18768 25.6271L30.4637 27.5671C31.5182 27.6317 32.4759 26.8601 32.6029 25.8437L32.8882 23.5593C33.0151 22.5428 32.2632 21.6664 31.2087 21.6018Z" fill="#993399"/>
<path d="M39.3347 31.8722L-0.442724 29.4342C-1.49722 29.3695 -2.45495 30.1411 -2.58188 31.1576L-2.86717 33.442C-2.9941 34.4584 -2.24217 35.3348 -1.18768 35.3995L38.5897 37.8375C39.6442 37.9021 40.602 37.1306 40.7289 36.1141L41.0142 33.8297C41.1411 32.8132 40.3892 31.9368 39.3347 31.8722Z" fill="#993399"/>
<path fill-rule="evenodd" clip-rule="evenodd" d="M10.7212 11.6209L10.2897 16.4183L12.964 19.184C14.4349 20.7052 15.6584 21.9594 15.6831 21.9711C15.7079 21.9828 15.8293 20.869 15.955 19.4767C16.0799 18.0932 16.2839 16.0118 16.4084 14.8515L16.6347 12.7418L17.5779 12.8228C18.8363 12.9309 20.3222 13.1411 20.7813 13.2761C21.4567 13.4746 21.8198 13.7787 22.1787 14.4466L22.3285 14.7254L22.006 18.6724C21.6658 22.8345 21.5978 23.3659 21.3488 23.8034C21.1501 24.1526 20.8401 24.4319 20.3722 24.6832L19.953 24.9084L14.8109 24.5318C11.9828 24.3247 9.65933 24.1616 9.64762 24.1695C9.63591 24.1773 9.50268 25.4112 9.35146 26.9113L9.07666 29.639L10.2513 29.7372C12.9489 29.9627 19.0946 30.3814 19.6456 30.3771C20.6767 30.3692 21.709 30.1726 22.8074 29.7751C23.5637 29.5014 23.8546 29.3621 24.4778 28.9757C25.812 28.1484 26.8556 26.8231 27.3528 25.3249C27.534 24.7786 28.0139 20.3095 28.2296 17.1579C28.4024 14.6348 28.4052 14.5351 28.3187 14.0405C27.9409 11.8804 26.6781 10.1134 24.7196 9.0039C23.7134 8.43396 22.6046 8.0362 21.3599 7.79883C20.9754 7.72549 19.1294 7.53966 15.964 7.25548L11.1526 6.8235L10.7212 11.6209Z" fill="white"/>
</g>
</g>
<defs>
<clipPath id="clip0_808_718">
<rect width="38" height="38" fill="white"/>
</clipPath>
</defs>
</svg>
